<?xml version="1.0" encoding="utf-8"?>
<!-- Generator: Adobe Illustrator 25.0.1, SVG Export Plug-In . SVG Version: 6.00 Build 0)  -->
<svg version="1.1" id="Layer_1" xmlns="http://www.w3.org/2000/svg" xmlns:xlink="http://www.w3.org/1999/xlink" x="0px" y="0px"
	 viewBox="0 0 512 512" style="enable-background:new 0 0 512 512;" xml:space="preserve">
<style type="text/css">
	.st0{fill:#FFFFFF;}
</style>
<g>
	<path class="st0" d="M79.3,176.7H15c-8.3,0-15,6.7-15,15v160.7c0,8.3,6.7,15,15,15h64.3c8.3,0,15-6.7,15-15V191.7
		C94.3,183.4,87.6,176.7,79.3,176.7L79.3,176.7z"/>
	<path class="st0" d="M360.4,350.3c8.3,0,15-6.7,15-15v-33.2h1.1c8.3,0,15-6.7,15-15s-6.7-15-15-15h-1.1v-81.4
		c0-6.1-3.7-11.5-9.3-13.9c-5.6-2.3-12.1-1-16.3,3.2c0,0-46.8,46.8-69,69c-10,10-15.7,23.9-15.7,38c0,8.3,6.7,15,15,15h65.3v33.2
		C345.4,343.6,352.1,350.3,360.4,350.3L360.4,350.3z M300.4,272.1c0.5-0.6,1.1-1.2,1.6-1.8c11.2-11.2,28.8-28.8,43.4-43.4v45.2
		H300.4z"/>
	<path class="st0" d="M238.9,335.3c0-8.3-6.7-15-15-15h-60c0.5-0.6,1.1-1.2,1.6-1.8c22.2-22.2,69-69,69-69c2.8-2.8,4.4-6.6,4.4-10.6
		v-8c0-30.4-24.7-55.2-55.2-55.2c-30.7,0-55.2,24.9-55.2,55.1v0c0,8.3,6.7,15,15,15s15-6.7,15-15c0-13.8,11.1-25.1,25.2-25.1
		c13.9,0,25.2,11.3,25.2,25.2v1.8c-12.2,12.2-46.6,46.5-64.6,64.6c-10,10-15.7,23.9-15.7,38c0,8.3,6.7,15,15,15h80.3
		C232.1,350.3,238.9,343.6,238.9,335.3L238.9,335.3z"/>
	<path class="st0" d="M256,30c75.3,0,138.7,51.7,156.7,121.5c6-3,12.9-4.7,20.1-4.7h9.7C422.1,62.7,346.2,0,256,0
		S89.9,62.7,69.6,146.7h9.7c7.2,0,14,1.7,20.1,4.7C117.3,81.7,180.7,30,256,30L256,30z"/>
	<path class="st0" d="M409.7,391.1c-15,34.6-49.4,58.8-89.5,58.8h-19.6c-6.3-18.7-23.9-32.1-44.7-32.1c-26,0-47.1,21.1-47.1,47.1
		S230,512,256,512c20.7,0,38.4-13.5,44.7-32.1h19.6c54.5,0,101-34.3,119.3-82.5h-6.8C424.3,397.4,416.5,395.1,409.7,391.1
		L409.7,391.1z"/>
	<path class="st0" d="M497,176.7h-64.3c-8.3,0-15,6.7-15,15v160.7c0,8.3,6.7,15,15,15H497c8.3,0,15-6.7,15-15V191.7
		C512,183.4,505.3,176.7,497,176.7L497,176.7z"/>
</g>
</svg>
