<?xml version="1.0" encoding="utf-8"?>
<!-- Generator: Adobe Illustrator 25.0.1, SVG Export Plug-In . SVG Version: 6.00 Build 0)  -->
<svg version="1.1" id="Capa_1" xmlns="http://www.w3.org/2000/svg" xmlns:xlink="http://www.w3.org/1999/xlink" x="0px" y="0px"
	 viewBox="0 0 512 512" style="enable-background:new 0 0 512 512;" xml:space="preserve">
<style type="text/css">
	.st0{fill:#FFFFFF;}
</style>
<g>
	<g>
		<path class="st0" d="M224,160v-32H32c-17.6,0-32,14.4-32,32v64h230.8C226.3,204.4,224,183.4,224,160z"/>
	</g>
</g>
<g>
	<g>
		<path class="st0" d="M510.7,288c-21.8,33.6-55.1,62.2-102.8,89.6c-7.3,4.2-15.6,6.4-23.9,6.4s-16.6-2.2-23.8-6.3
			c-47.7-27.5-81-56.1-102.8-89.7H0v160c0,17.7,14.4,32,32,32h448c17.7,0,32-14.3,32-32V288L510.7,288L510.7,288z M144,384H80
			c-8.8,0-16-7.2-16-16s7.2-16,16-16h64c8.8,0,16,7.2,16,16S152.8,384,144,384z"/>
	</g>
</g>
<g>
	<g>
		<path class="st0" d="M502.3,81.3l-112-48c-4.1-1.7-8.6-1.7-12.6,0l-112,48c-5.9,2.5-9.7,8.3-9.7,14.7v64
			c0,88,32.5,139.5,120,189.9c2.5,1.4,5.2,2.1,8,2.1s5.5-0.7,8-2.1c87.5-50.3,120-101.7,120-189.9V96
			C512,89.6,508.2,83.8,502.3,81.3z M444.5,154l-64,80c-3.1,3.8-7.7,6-12.5,6c-0.2,0-0.5,0-0.7,0c-5.1-0.2-9.8-2.8-12.6-7.1l-32-48
			c-4.9-7.4-2.9-17.3,4.4-22.2c7.3-4.9,17.2-2.9,22.2,4.4l19.9,29.8l50.3-62.9c5.5-6.9,15.6-8,22.5-2.5
			C448.9,137,450,147.1,444.5,154z"/>
	</g>
</g>
</svg>
