<svg id="Capa_1" data-name="Capa 1" xmlns="http://www.w3.org/2000/svg" viewBox="0 0 512 512"><defs><style>.cls-1{fill:#ffdb56;}.cls-2{fill:#ff4a4a;}.cls-3{fill:#ffbb24;}.cls-4{fill:#e7343f;}</style></defs><path class="cls-1" d="M247,395.86c-61.51,0-126.88,20.36-126.88,58.07S185.52,512,247,512,373.9,491.65,373.9,453.93,308.53,395.86,247,395.86Z"/><path class="cls-2" d="M247,0c-99,0-179.49,80.52-179.49,179.49,0,61.45,29.23,127.51,86.88,196.36,42.44,50.7,84.27,83.27,86,84.64a10.76,10.76,0,0,0,13.14,0c1.76-1.37,43.59-33.94,86-84.64,57.65-68.85,86.88-134.92,86.88-196.36C426.51,80.52,346,0,247,0Z"/><path class="cls-3" d="M247,485.19c-53.77,0-110.48-15.55-123.91-44.67a31.76,31.76,0,0,0-3,13.41C120.14,491.65,185.52,512,247,512S373.9,491.65,373.9,453.93a31.8,31.8,0,0,0-3-13.41C357.51,469.63,300.79,485.19,247,485.19Z"/><path class="cls-4" d="M247,0a180,180,0,0,0-20.22,1.15c89.48,10.07,159.27,86.2,159.27,178.34,0,61.45-29.23,127.51-86.88,196.36a648.05,648.05,0,0,1-72.39,73.36c8,6.89,13.06,10.82,13.65,11.27a10.72,10.72,0,0,0,13.14,0c1.76-1.36,43.59-33.93,86-84.63,57.65-68.85,86.88-134.92,86.88-196.36C426.51,80.52,346,0,247,0Z"/><path class="cls-1" d="M200.55,250.11a4.37,4.37,0,0,1-1.33-3.23v-9.12q0-14.43,5.7-24.89a58.34,58.34,0,0,1,13.68-17.1q8-6.65,20.9-15.39,14.44-9.12,21.09-16a22.62,22.62,0,0,0,6.65-16.34,19,19,0,0,0-8-16.15Q251.28,126,238,126q-14.44,0-23,6.65A20.91,20.91,0,0,0,206.44,150v4.18q0,4.18-4.56,4.18l-54-2.28a4.12,4.12,0,0,1-3.23-1.52,5,5,0,0,1-1.33-3.42V150q0-23.94,12.16-42.37t34-28.69q21.85-10.26,50-10.26,27.74,0,48.45,9.5T319.87,105q11.2,17.3,11.21,40.09,0,17.1-6.08,29.07a65.29,65.29,0,0,1-14.63,19.57A190.15,190.15,0,0,1,288.52,210q-13.31,8.74-19.76,15.39a22.32,22.32,0,0,0-6.46,16.15v5.32a4.54,4.54,0,0,1-4.56,4.56h-54A4.38,4.38,0,0,1,200.55,250.11Zm4.56,80.56q-9.31-9.3-9.31-23.75,0-14.82,9.12-23.94t23.56-9.12q14.45,0,23.75,9.12t9.31,23.94q0,14.07-9.31,23.56T228.48,340Q214.43,340,205.11,330.67Z"/></svg>