<?xml version="1.0" encoding="utf-8"?>
<!-- Generator: Adobe Illustrator 25.0.1, SVG Export Plug-In . SVG Version: 6.00 Build 0)  -->
<svg version="1.1" id="Capa_1" xmlns="http://www.w3.org/2000/svg" xmlns:xlink="http://www.w3.org/1999/xlink" x="0px" y="0px"
	 viewBox="0 0 512 512" style="enable-background:new 0 0 512 512;" xml:space="preserve">
<style type="text/css">
	.st0{fill:#FFDB56;}
	.st1{fill:#FF4A4A;}
	.st2{fill:#FFBB24;}
	.st3{display:none;fill:#FF4A4A;}
	.st4{fill:#E7343F;}
	.st5{fill:none;}
	.st6{font-family:'Barlow-ExtraBold';}
	.st7{font-size:380px;}
</style>
<path class="st0" d="M247,395.9c-61.5,0-126.9,20.4-126.9,58.1S185.5,512,247,512s126.9-20.4,126.9-58.1S308.5,395.9,247,395.9z"/>
<path class="st1" d="M247,0c-99,0-179.5,80.5-179.5,179.5c0,61.4,29.2,127.5,86.9,196.4c42.4,50.7,84.3,83.3,86,84.6
	c1.9,1.5,4.3,2.2,6.6,2.2s4.6-0.7,6.6-2.2c1.8-1.4,43.6-33.9,86-84.6c57.7-68.9,86.9-134.9,86.9-196.4C426.5,80.5,346,0,247,0z"/>
<g>
	<path class="st2" d="M247,485.2c-53.8,0-110.5-15.6-123.9-44.7c-1.9,4.2-3,8.7-3,13.4c0,37.7,65.4,58.1,126.9,58.1
		s126.9-20.4,126.9-58.1c0-4.7-1-9.2-3-13.4C357.5,469.6,300.8,485.2,247,485.2z"/>
</g>
<path class="st3" d="M413.5,0c-54.2,0-98.2,44.1-98.2,98.2c0,33.4,15.9,69.3,47.1,106.7c22.9,27.4,45.6,45,46.5,45.8
	c1.4,1,3,1.6,4.6,1.6s3.2-0.5,4.6-1.6c1-0.7,23.6-18.4,46.5-45.8c31.3-37.3,47.1-73.2,47.1-106.7C511.8,44.1,467.7,0,413.5,0z
	 M449.7,98.2c0,20-16.2,36.2-36.2,36.2s-36.2-16.2-36.2-36.2S393.6,62,413.5,62C433.5,62,449.7,78.2,449.7,98.2z"/>
<g>
	<path class="st4" d="M247,0c-6.8,0-13.6,0.4-20.2,1.1c89.5,10.1,159.3,86.2,159.3,178.3c0,61.4-29.2,127.5-86.9,196.4
		c-28.3,33.8-56.3,59.5-72.4,73.4c8,6.9,13.1,10.8,13.6,11.3c1.9,1.5,4.3,2.2,6.6,2.2s4.6-0.7,6.6-2.2c1.8-1.4,43.6-33.9,86-84.6
		c57.7-68.9,86.9-134.9,86.9-196.4C426.5,80.5,346,0,247,0z"/>
</g>
<rect x="134.2" y="72.5" class="st5" width="292.3" height="309.7"/>
<text transform="matrix(1 0 0 1 134.2434 338.4629)" class="st0 st6 st7">?</text>
</svg>
