<?xml version="1.0" encoding="utf-8"?>
<!-- Generator: Adobe Illustrator 25.0.1, SVG Export Plug-In . SVG Version: 6.00 Build 0)  -->
<svg version="1.1" id="Capa_1" xmlns="http://www.w3.org/2000/svg" xmlns:xlink="http://www.w3.org/1999/xlink" x="0px" y="0px"
	 viewBox="0 0 480.1 480.1" style="enable-background:new 0 0 480.1 480.1;" xml:space="preserve">
<style type="text/css">
	.st0{fill:#FF9900;}
	.st1{fill:none;}
	.st2{font-family:'ArialMT';}
	.st3{font-size:12px;}
</style>
<g>
	<g>
		<g>
			<path class="st0" d="M246.9,105.8c-63.8,0-121.4,38-146.5,96.6l-2,0.7l0.8,2.3c-33,81.5,6.2,174.3,87.7,207.4
				c19,7.7,39.4,11.7,59.9,11.7c88,0,159.3-71.3,159.3-159.3S334.9,105.8,246.9,105.8z M371.9,345.4l-8.2-8.2v-19
				c0-0.8-0.2-1.6-0.5-2.4l-20.7-41.4v-20c0-1.8-0.9-3.4-2.4-4.4l-15.9-10.6c-1.2-0.8-2.8-1.1-4.2-0.7l-19.5,4.9l-32.8-14.1
				l-4.5-31.6l12.5-12.5h26.8l9,13.6c0.8,1.2,2.1,2,3.5,2.3l31.9,5.3c0.9,0.1,1.7,0.1,2.5-0.2l29.3-9.8
				C403.4,243.9,400.7,300.7,371.9,345.4z M350,158.1l-8.6,5.8l-24.1-4.8l-15.6-5.2c-1-0.3-2-0.4-3-0.1l-19.7,4.9l-8.7-2.9l6.4-12.8
				h18c0.8,0,1.6-0.2,2.4-0.6l18.4-9.2C328.1,139.8,339.7,148.2,350,158.1z M188.7,128.3l12.7,8.5c0.6,0.4,1.3,0.7,2.1,0.8l25.7,4.3
				l-2.5,7.5l-13.4,4.5c-1.2,0.4-2.2,1.2-2.9,2.3l-15.3,25.4l-24.5,14.7l-36.1,5.2c-2.6,0.4-4.6,2.6-4.6,5.3v15.9
				c0,1.4,0.6,2.8,1.6,3.8l9.1,9.1v9.1L118.5,230l-8-24C125.8,170.9,153.7,143.2,188.7,128.3z M173.6,302.4l-24-4.8l-8.9-17.8v-12.5
				l19.8-19.8l7.3,14.7c0.9,1.8,2.7,2.9,4.8,2.9h34.2l14.4,24c1,1.6,2.7,2.6,4.6,2.6h14.8l-3.7,18.6l-20.1,20.1
				c-1,1-1.6,2.3-1.6,3.8v13.3l-19.1,14.3c-1.3,1-2.1,2.6-2.1,4.2v19.2l-6.6-2.2l-9.3-23.3v-52.1C177.8,305.1,176,302.9,173.6,302.4
				z M157.6,384c-50.1-37.6-71.2-102.5-53-162.3l4.4,13.2c0.4,1.1,1.1,2.1,2.1,2.7l26.5,17.6l-6,6c-1,1-1.6,2.3-1.6,3.8v16
				c0,0.8,0.2,1.6,0.6,2.4l10.6,21.2c0.7,1.5,2.1,2.5,3.7,2.8l22.3,4.5v48.8c0,0.7,0.1,1.3,0.4,2l10.6,26.6c0.6,1.5,1.8,2.6,3.3,3.1
				l15.9,5.3c0.5,0.2,1.1,0.3,1.7,0.3c2.9,0,5.3-2.4,5.3-5.3v-23.9l19.1-14.3c1.3-1,2.1-2.6,2.1-4.2v-13.7l19.7-19.7
				c0.7-0.7,1.2-1.7,1.4-2.7l5.3-26.6c0.6-2.9-1.3-5.7-4.2-6.2c-0.3-0.1-0.7-0.1-1-0.1h-18.2l-14.4-24c-1-1.6-2.7-2.6-4.6-2.6h-33.9
				l-9.1-18.3c-0.8-1.5-2.2-2.6-3.9-2.9c-1.7-0.3-3.4,0.3-4.6,1.5l-6.9,6.9v-8.4c0-1.4-0.6-2.8-1.6-3.8l-9.1-9.1v-9.1l32.6-4.7
				c0.7-0.1,1.4-0.3,2-0.7l26.6-15.9c0.7-0.4,1.4-1.1,1.8-1.8l14.9-24.9l14.1-4.7c1.6-0.5,2.8-1.8,3.4-3.4l5.3-15.9
				c0.9-2.8-0.6-5.8-3.4-6.7c-0.3-0.1-0.5-0.2-0.8-0.2l-30.7-5.1l-5.4-3.6c33.4-10.9,69.6-9.5,102.1,3.8l-9.7,4.8h-20
				c-2,0-3.9,1.1-4.8,2.9L258,156.5c-1.3,2.6-0.2,5.8,2.4,7.1c0.2,0.1,0.5,0.2,0.7,0.3l15.9,5.3c1,0.3,2,0.4,3,0.1l19.7-4.9
				l14.5,4.8c0.2,0.1,0.4,0.1,0.6,0.2l26.6,5.3c1.4,0.3,2.8,0,4-0.8l12.1-8.1c5.9,6.6,11.3,13.8,16,21.3l-26.1,8.7l-28.3-4.7
				l-9.3-14c-1-1.5-2.6-2.4-4.4-2.4h-31.9c-1.4,0-2.8,0.6-3.8,1.6l-15.9,15.9c-1.2,1.2-1.7,2.9-1.5,4.5l5.3,37.2
				c0.3,1.8,1.5,3.4,3.2,4.1l37.2,15.9c1.1,0.5,2.3,0.6,3.4,0.3l19-4.7l11.6,7.7v18.4c0,0.8,0.2,1.6,0.5,2.4l20.7,41.4v20
				c0,1.4,0.6,2.8,1.6,3.8l11.1,11.1C316.5,420,223.3,433.3,157.6,384z"/>
		</g>
	</g>
</g>
<path id="SVGID_x5F_1_x5F_" class="st1" d="M439.1,284.6c0,106.2-86.1,192.2-192.2,192.2s-192.3-86-192.3-192.2
	S140.7,92.4,246.8,92.4S439.1,178.5,439.1,284.6z"/>
<text class="st2 st3"> </text>
</svg>
