<svg id="Calque_6" data-name="Calque 6" xmlns="http://www.w3.org/2000/svg" viewBox="0 0 1696.91 224.59"><defs><style>.cls-1{fill:none;stroke:#c1b9b9;stroke-miterlimit:10;stroke-width:3px;stroke-dasharray:12 20 12 20 12 20;}.cls-2,.cls-6{fill:#ffdb56;}.cls-3{fill:#ff4a4a;}.cls-4{fill:#ffbb24;}.cls-5{fill:#e7343f;}.cls-6{font-size:39.83px;font-family:Barlow-ExtraBold, Barlow;font-weight:800;}</style></defs><path class="cls-1" d="M1696.91,11.44S1592.83,94,1352.13,92C1033,89.25,881.43,131.52,838,172.46"/><path class="cls-2" d="M838,180.46c-7.51,0-15.49,2.49-15.49,7.09s8,7.09,15.49,7.09,15.49-2.48,15.49-7.09S845.5,180.46,838,180.46Z"/><path class="cls-3" d="M838,132.13a21.94,21.94,0,0,0-21.91,21.92c0,7.5,3.57,15.56,10.6,24a75,75,0,0,0,10.51,10.33,1.28,1.28,0,0,0,1.6,0A74.37,74.37,0,0,0,849.3,178c7-8.41,10.6-16.47,10.6-24A21.94,21.94,0,0,0,838,132.13Z"/><path class="cls-4" d="M838,191.37c-6.56,0-13.49-1.9-15.13-5.45a3.92,3.92,0,0,0-.36,1.63c0,4.61,8,7.09,15.49,7.09s15.49-2.48,15.49-7.09a3.92,3.92,0,0,0-.36-1.63C851.48,189.47,844.56,191.37,838,191.37Z"/><path class="cls-5" d="M838,132.13a22.44,22.44,0,0,0-2.47.14A22,22,0,0,1,855,154.05c0,7.5-3.57,15.56-10.61,24a79.63,79.63,0,0,1-8.84,9c1,.84,1.6,1.32,1.67,1.37a1.28,1.28,0,0,0,1.6,0A74.37,74.37,0,0,0,849.3,178c7-8.41,10.6-16.47,10.6-24A21.94,21.94,0,0,0,838,132.13Z"/><text class="cls-6" transform="translate(826.8 171.09)">?</text></svg>