<?xml version="1.0" encoding="utf-8"?>
<!-- Generator: Adobe Illustrator 25.0.1, SVG Export Plug-In . SVG Version: 6.00 Build 0)  -->
<svg version="1.1" id="Capa_1" xmlns="http://www.w3.org/2000/svg" xmlns:xlink="http://www.w3.org/1999/xlink" x="0px" y="0px"
	 viewBox="0 0 512 512" style="enable-background:new 0 0 512 512;" xml:space="preserve">
<style type="text/css">
	.st0{fill:#C83741;}
	.st1{fill:#0050C3;}
	.st2{fill:#FF4B4B;}
	.st3{fill:#FFCF65;}
	.st4{fill:#FFB450;}
</style>
<g>
	<polygon class="st0" points="321.3,112.3 64.1,71.9 0,136 213.8,219.7 	"/>
	<polygon class="st1" points="294.1,298 377.6,511.3 441.8,447.2 401.5,190.7 	"/>
</g>
<polygon class="st2" points="294.1,298 377.6,511.3 441.8,447.2 401.5,190.7 "/>
<path class="st3" d="M221.6,465.7l5.6-95.5l250.4-250.4c9.5-9.5,20.9-29.5,27.8-48.5c9.9-27.6,8.7-48.6-3.5-60.8
	c-12.2-12.2-33.2-13.4-60.8-3.5c-19,6.8-38.9,18.2-48.5,27.8L142.2,285.3l-95.5,5.6L1,336.7l117.8,56.9l57,118L221.6,465.7z"/>
<path class="st4" d="M119,393.8l56.9,117.7l45.8-45.8l5.6-95.5l250.4-250.4c9.5-9.5,20.9-29.5,27.8-48.5c9.9-27.5,8.7-48.5-3.3-60.6
	L119,393.8z"/>
<rect x="70.1" y="372.5" transform="matrix(0.7071 -0.7071 0.7071 0.7071 -237.4038 201.8731)" class="st0" width="109.7" height="30"/>
<rect x="75.5" y="385.5" transform="matrix(0.7071 -0.7071 0.7071 0.7071 -239.6398 207.2699)" class="st2" width="109.7" height="14.8"/>
</svg>
