<svg xmlns="http://www.w3.org/2000/svg" viewBox="0 0 1696.91 768"><defs><style>.cls-1,.cls-2,.cls-3{fill:none;stroke:#c1b9b9;stroke-linecap:round;stroke-miterlimit:10;stroke-width:3px;}.cls-2{stroke-dasharray:12.08 20.14 12.08 20.14;}.cls-3{stroke-dasharray:12.08 20.14 12.08 20.14 12.08 20.14;}.cls-4{fill:#c83741;}.cls-5{fill:#0050c3;}.cls-6{fill:#ff4b4b;}.cls-7{fill:#ffcf65;}.cls-8{fill:#ffb450;}</style></defs><g id="Calque_2" data-name="Calque 2"><path class="cls-1" d="M0,383.15s1.25-1.69,3.83-4.61"/><path class="cls-2" d="M18.09,364.34a245,245,0,0,1,44.38-31.23"/><path class="cls-3" d="M71.37,328.39c38.42-19.52,93.49-36.33,167.85-34.43,155,4,186.36,117.34,266.89,99.43,104.62-23.27,39.13-127.32,91.83-129.73,88.18-4,116.33,148.35,167.73,129.08,119-44.59,85.69-130.57,162.34-135.33,71.09-4.4,203.28,130.91,266.12,125.74,111.44-9.15,191.31-105,280.69-99,98.71,6.57,156,111.53,206.47,113.05"/><path class="cls-1" d="M1691.27,396a35.52,35.52,0,0,0,5.64-2"/></g><g id="Calque_4" data-name="Calque 4"><polygon class="cls-4" points="818.6 353.86 793.31 348.31 786.57 354.29 807.28 363.88 818.6 353.86"/><polygon class="cls-5" points="814.79 372.13 821.8 393.8 828.55 387.82 826.09 362.12 814.79 372.13"/><polygon class="cls-6" points="814.79 372.13 821.8 393.8 828.55 387.82 826.09 362.12 814.79 372.13"/><path class="cls-7" d="M806.59,388.34l1.12-9.44,26.35-23.36a14.8,14.8,0,0,0,3.05-4.64c1.15-2.68,1.16-4.78,0-6.06s-3.21-1.53-6-.71a14.46,14.46,0,0,0-5,2.47L799.79,370h-9.51l-4.81,4.27,11.35,6.35,4.95,12.05Z"/><path class="cls-8" d="M796.83,380.59l4.95,12,4.82-4.27,1.12-9.44,26.35-23.36a14.8,14.8,0,0,0,3-4.64c1.15-2.67,1.16-4.76,0-6Z"/><rect class="cls-4" x="792.01" y="378.51" width="10.91" height="2.98" transform="translate(-51.39 624.54) rotate(-41.55)"/><rect class="cls-6" x="792.51" y="379.84" width="10.91" height="1.47" transform="translate(-51.64 625.02) rotate(-41.55)"/><polygon class="cls-4" points="461.53 382.65 462.05 356.77 454.87 351.32 449.5 373.51 461.53 382.65"/><polygon class="cls-5" points="442.87 382.47 422.98 393.56 430.15 399.02 454.88 391.61 442.87 382.47"/><polygon class="cls-6" points="442.87 382.47 422.98 393.56 430.15 399.02 454.88 391.61 442.87 382.47"/><path class="cls-7" d="M425.37,377.58l9.49-.73,28,21.3a14.91,14.91,0,0,0,5.15,2.09c2.85.6,4.9.2,5.94-1.16s.88-3.45-.47-6a14.48,14.48,0,0,0-3.39-4.4l-28-21.31L440.24,358l-5.12-3.89-4,12.37-10.85,7.21Z"/><path class="cls-8" d="M431.08,366.51l-10.83,7.18,5.12,3.9,9.49-.73,28,21.3a14.91,14.91,0,0,0,5.15,2.09c2.84.6,4.9.2,5.93-1.14Z"/><rect class="cls-4" x="430.28" y="361.56" width="2.98" height="10.91" transform="translate(-121.68 488.73) rotate(-52.77)"/><rect class="cls-6" x="430.58" y="362.16" width="1.47" height="10.91" transform="matrix(0.61, -0.8, 0.8, 0.61, -122.34, 488.6)"/><polygon class="cls-4" points="1212.07 373.16 1195.57 353.22 1186.57 353.77 1196.99 374.08 1212.07 373.16"/><polygon class="cls-5" points="1197.82 385.2 1190 406.6 1199.01 406.05 1212.89 384.28 1197.82 385.2"/><polygon class="cls-6" points="1197.82 385.2 1190 406.6 1199.01 406.05 1212.89 384.28 1197.82 385.2"/><path class="cls-7" d="M1181.38,392.93l6.7-6.75,35.15-2.18a14.78,14.78,0,0,0,5.26-1.78c2.55-1.4,3.85-3.05,3.74-4.76s-1.59-3.18-4.3-4.26a14.34,14.34,0,0,0-5.44-1.12l-35.15,2.18-7.49-5.87-6.42.41,5,12L1175,393.33Z"/><path class="cls-8" d="M1178.47,380.82,1175,393.33l6.43-.39,6.7-6.75,35.14-2.18a14.82,14.82,0,0,0,5.27-1.78c2.55-1.4,3.84-3,3.74-4.74Z"/><rect class="cls-4" x="1173.87" y="379.25" width="10.91" height="2.98" transform="translate(-21.28 73.62) rotate(-3.54)"/><rect class="cls-6" x="1173.92" y="380.76" width="10.91" height="1.47" transform="translate(-21.33 73.63) rotate(-3.54)"/></g></svg>