<svg xmlns="http://www.w3.org/2000/svg" viewBox="0 0 1000 350"><defs><style>.cls-1{fill:none;stroke:#c1b9b9;stroke-linecap:round;stroke-miterlimit:10;stroke-width:3px;stroke-dasharray:12 20 12 20 12 20;}.cls-2{fill:#c83741;}.cls-3{fill:#0050c3;}.cls-4{fill:#ff4b4b;}.cls-5{fill:#ffcf65;}.cls-6{fill:#ffb450;}</style></defs><g id="Calque_2" data-name="Calque 2"><path class="cls-1" d="M0,155.14C110,173.47,311.19,77,359.21,83.31,414.28,90.49,433.11,201.9,512.89,188s221.83-116.1,283.28-107,133.45,116.66,182,94.09L1000,164.08"/></g><g id="Calque_3" data-name="Calque 3"><polygon class="cls-2" points="496.13 179.83 484.25 158.4 475.79 157.35 481.94 178.06 496.13 179.83"/><polygon class="cls-3" points="480.77 188.55 469.77 207.08 478.24 208.14 494.95 190.32 480.77 188.55"/><polygon class="cls-4" points="480.77 188.55 469.77 207.08 478.24 208.14 494.95 190.32 480.77 188.55"/><path class="cls-5" d="M464.13,192.87l7.41-5.11,33.07,4.11a14.12,14.12,0,0,0,5.21-.75c2.62-.86,4.11-2.16,4.31-3.77s-.93-3.24-3.26-4.72a14,14,0,0,0-4.87-2l-33.07-4.1L467,169.77l-6-.74,2.59,12-5.47,11.05Z"/><path class="cls-6" d="M463.53,181.09l-5.44,11,6.05.75,7.41-5.1,33.07,4.1a13.86,13.86,0,0,0,5.2-.74c2.62-.85,4.11-2.16,4.31-3.75Z"/><rect class="cls-2" x="462.93" y="176.01" width="2.82" height="10.32" transform="translate(227.32 619.64) rotate(-82.92)"/><rect class="cls-4" x="463.56" y="176.72" width="1.39" height="10.32" transform="translate(226.54 620.18) rotate(-82.92)"/></g></svg>