<svg xmlns="http://www.w3.org/2000/svg" viewBox="0 0 1000 350"><defs><style>.cls-1{fill:none;stroke:#c1b9b9;stroke-linecap:round;stroke-miterlimit:10;stroke-width:3px;stroke-dasharray:12 20 12 20 12 20;}.cls-2{fill:#c83741;}.cls-3{fill:#0050c3;}.cls-4{fill:#ff4b4b;}.cls-5{fill:#ffcf65;}.cls-6{fill:#ffb450;}</style></defs><g id="Calque_2" data-name="Calque 2"><path class="cls-1" d="M0,155.14c109.05,18.17,309.81-78.28,359.21-71.83C414.28,90.49,433.11,201.9,512.89,188s221.83-116.1,283.28-107,133.45,116.66,182,94.09L1000,164.08"/></g><g id="Calque_3" data-name="Calque 3"><polygon class="cls-2" points="471.5 187.48 481.64 209.78 489.99 211.5 485.5 190.37 471.5 187.48"/><polygon class="cls-3" points="487.5 180 499.94 162.4 491.58 160.68 473.51 177.12 487.5 180"/><polygon class="cls-4" points="487.5 180 499.94 162.4 491.58 160.68 473.51 177.12 487.5 180"/><path class="cls-5" d="M504.43,177l-7.79,4.5L464,174.81a13.77,13.77,0,0,0-5.25.33c-2.68.65-4.27,1.83-4.6,3.42s.67,3.3,2.87,5a13.92,13.92,0,0,0,4.7,2.37l32.64,6.71,5.39,7.21,6,1.22-1.62-12.2,6.32-10.59Z"/><path class="cls-6" d="M504.09,188.81l6.3-10.57-6-1.23-7.79,4.51L464,174.8a14.18,14.18,0,0,0-5.25.33c-2.67.64-4.26,1.82-4.59,3.39Z"/><rect class="cls-2" x="501.88" y="183.5" width="2.82" height="10.32" transform="translate(217.07 643.6) rotate(-78.37)"/><rect class="cls-4" x="502.74" y="182.8" width="1.39" height="10.32" transform="translate(217.87 643.18) rotate(-78.37)"/></g></svg>