<?xml version="1.0" encoding="utf-8"?>
<!-- Generator: Adobe Illustrator 25.0.1, SVG Export Plug-In . SVG Version: 6.00 Build 0)  -->
<svg version="1.1" id="bold" xmlns="http://www.w3.org/2000/svg" xmlns:xlink="http://www.w3.org/1999/xlink" x="0px" y="0px"
	 viewBox="0 0 512 512" style="enable-background:new 0 0 512 512;" xml:space="preserve">
<style type="text/css">
	.st0{fill:#FFFFFF;}
</style>
<path class="st0" d="M341.3,195c-1.3-25.4-22.4-45.7-48-45.7h-16v-42.7C277.3,47.9,229.5,0,170.7,0S64,47.9,64,106.7v42.7H48
	c-26.5,0-48,21.5-48,48v181.3c0,26.5,21.5,48,48,48h151.9c-5.1-16.9-7.9-34.8-7.9-53.3C192,284.2,256.4,209.9,341.3,195z
	 M106.7,149.3v-42.7c0-35.3,28.7-64,64-64s64,28.7,64,64v42.7H106.7z"/>
<path class="st0" d="M373.3,234.7c-76.5,0-138.7,62.2-138.7,138.7S296.9,512,373.3,512S512,449.8,512,373.3S449.8,234.7,373.3,234.7
	z M442.7,339.4L368,424.7c-3.9,4.4-9.4,7.1-15.3,7.3c-0.2,0-0.5,0-0.7,0c-5.7,0-11.1-2.2-15.1-6.3l-42.7-42.7
	c-8.3-8.3-8.3-21.8,0-30.2c8.3-8.3,21.8-8.3,30.2,0l26.5,26.5l59.6-68.2c7.8-8.8,21.2-9.8,30.1-2C449.6,317,450.5,330.5,442.7,339.4
	L442.7,339.4z"/>
</svg>
